<svg id="Layer_1" data-name="Layer 1" xmlns="http://www.w3.org/2000/svg" viewBox="0 0 40 40"><defs><style>.cls-1{fill:#e7f3e4;}.cls-2,.cls-3,.cls-4{fill:none;stroke-linecap:round;stroke-linejoin:round;stroke-width:1.5px;}.cls-2,.cls-3{stroke:#40413f;}.cls-3{opacity:0.99;}.cls-4{stroke:#1f9145;}</style></defs><rect class="cls-1" width="40" height="40" rx="4"/><path class="cls-2" d="M32.4,11.7l-.5,4.9A1.4,1.4,0,0,0,33.2,18h1.9a1.3,1.3,0,0,0,1.3-1.4l-.5-4.9"/><line class="cls-2" x1="34.2" y1="11.7" x2="34.2" y2="17"/><line class="cls-2" x1="34.2" y1="18.6" x2="34.2" y2="29.6"/><path class="cls-3" d="M5.9,18a2.1,2.1,0,0,0,1.9-1.1,4.6,4.6,0,0,0,.4-2.1c0-1.9-1-3.4-2.3-3.4s-2.3,1.5-2.3,3.4a4.6,4.6,0,0,0,.5,2.1A2,2,0,0,0,5.9,18Z"/><line class="cls-2" x1="5.9" y1="18" x2="5.9" y2="29.9"/><circle class="cls-2" cx="20" cy="20.7" r="10.3"/><circle class="cls-4" cx="20" cy="20.7" r="7.7"/></svg>